<svg width="128" height="103" viewBox="0 0 128 103" fill="none" xmlns="http://www.w3.org/2000/svg">
<path d="M117.141 88.2453C108.164 98.0367 94.5815 103 76.7759 103L70.3779 103L70.3779 84.8527L75.5219 83.8163C84.2871 82.0524 90.3844 78.5826 93.6474 73.4905C95.3499 70.7473 96.3155 67.6063 96.4497 64.375L76.7759 64.375C75.079 64.375 73.4517 63.6968 72.2518 62.4895C71.052 61.2822 70.3779 59.6448 70.3779 57.9375L70.3779 12.875C70.3779 5.77443 76.1169 -3.09363e-06 83.1738 -3.71057e-06L121.562 -7.06655e-06C123.259 -7.21489e-06 124.886 0.678223 126.086 1.88549C127.286 3.09275 127.96 4.73016 127.96 6.43749L127.96 38.625L127.941 57.4161C127.998 58.1306 129.214 75.0612 117.141 88.2453ZM12.796 2.44206e-06L51.1839 -9.1392e-07C52.8808 -1.06226e-06 54.5081 0.678229 55.708 1.8855C56.9078 3.09276 57.5819 4.73017 57.5819 6.4375L57.5819 38.625L57.5627 57.4161C57.6203 58.1306 58.8359 75.0613 46.7629 88.2453C37.7865 98.0367 24.2036 103 6.39799 103L7.62939e-06 103L6.04291e-06 84.8527L5.144 83.8163C13.9092 82.0524 20.0065 78.5826 23.2695 73.4905C24.972 70.7473 25.9376 67.6063 26.0718 64.375L6.39799 64.375C4.70114 64.375 3.07378 63.6968 1.87393 62.4895C0.674076 61.2822 3.83917e-06 59.6448 3.68991e-06 57.9375L-2.49584e-07 12.875C-8.70335e-07 5.77444 5.739 3.059e-06 12.796 2.44206e-06Z" fill="#F8F8F8" fill-opacity="0.1"/>
</svg>
